<svg xmlns="http://www.w3.org/2000/svg" viewBox="0 0 512 512">
  <defs>
    <linearGradient id="glow" x1="0" y1="0" x2="1" y2="1">
      <stop offset="0%" stop-color="#4ef2ff" />
      <stop offset="100%" stop-color="#b44bff" />
    </linearGradient>
  </defs>
  <rect width="512" height="512" rx="96" fill="#05070c" />
  <rect x="56" y="56" width="400" height="400" rx="72" fill="url(#glow)" opacity="0.18" />
  <circle cx="256" cy="256" r="150" fill="none" stroke="url(#glow)" stroke-width="20" />
  <path
    d="M176 236h78c44 0 72-24 72-62 0-40-32-66-82-66h-54v40h56c23 0 38 10 38 28 0 17-13 28-38 28h-70c-10 0-18 8-18 18v12c0 10 8 18 18 18h78c30 0 46 12 46 32 0 18-15 30-44 30h-68v40h74c52 0 86-28 86-70 0-32-18-54-52-62 28-10 44-32 44-62 0-46-36-76-92-76h-98c-12 0-22 10-22 22v66c0 12 10 22 22 22z"
    fill="url(#glow)"
  />
</svg>
